<svg fill="none" height="31" width="40" xmlns="http://www.w3.org/2000/svg" xmlns:xlink="http://www.w3.org/1999/xlink"><linearGradient id="a" gradientUnits="userSpaceOnUse" x1="20" x2="20" y1="0" y2="30.1"><stop offset="0"/><stop offset="1" stop-color="#3d3d3d"/></linearGradient><g fill="url(#a)" opacity=".9"><path d="m13 .4v29.3h-6v-23.4h-.2l-6.8 4.2v-5.5l7.2-4.6z"/><path d="m28.8 30.1c-2.2 0-4-.3-5.7-1-1.7-.8-3-1.8-4-3.1a7.7 7.7 0 0 1 -1.4-4.6h6.2c0 .8.3 1.4.7 2 .4.5 1 .9 1.7 1.2s1.6.4 2.5.4c1 0 1.7-.2 2.5-.5.7-.3 1.3-.8 1.7-1.4s.6-1.2.6-2-.2-1.5-.7-2.1c-.4-.6-1-1-1.8-1.4s-1.8-.5-2.9-.5h-2.7v-4.6h2.7a6 6 0 0 0 2.5-.5 4 4 0 0 0 1.7-1.3c.4-.6.6-1.3.6-2a3.5 3.5 0 0 0 -2-3.3 5.6 5.6 0 0 0 -4.5 0 4 4 0 0 0 -1.7 1.2c-.4.6-.6 1.2-.6 2h-6c0-1.7.6-3.2 1.5-4.5 1-1.3 2.2-2.3 3.8-3 1.5-.7 3.3-1.1 5.3-1.1s3.8.4 5.3 1.1 2.7 1.7 3.6 3a7.2 7.2 0 0 1 1.2 4.2c0 1.6-.5 3-1.5 4a7 7 0 0 1 -4 2.2v.2c2.2.3 3.8 1 5 2.2a6.4 6.4 0 0 1 1.6 4.6c0 1.7-.5 3.1-1.4 4.4a9.7 9.7 0 0 1 -4 3.1c-1.7.8-3.7 1.1-5.8 1.1z"/></g></svg>